# xmcd
#
# Track frame offsets: 
#        150
#        10137
#        20635
#        34310
#        45247
#        55385
#        65702
#        76390
#        86315
#        97807
#        109760
#        120830
#        131890
#        141417
#        154737
#        166940
#        181992
#        194512
#        207600
#        219502
#        230012
#        243102
#        254882
#        266377
#        277295
#        286992
#        298367
#        309582
#        320920
#        331072
#        343457
#
# Disc length: 4718 seconds
#
# Revision: 1
# Processed by: cddbd v1.5.2PL0 Copyright (c) Steve Scherf et al.
# Submitted via: ExactAudioCopy v1.1
#
DISCID=e4126c1f
DTITLE=Brenda Lee - Little Miss Dynamite (Bear Family) - Disc 4
DYEAR=1995
DGENRE=Pop
TTITLE0=Tables Are Turning (stereo)
TTITLE1=Funny Feelin' (stereo)
TTITLE2=Eventually (stereo)
TTITLE3=Dum Dum (stereo)
TTITLE4=Let Me Be The One (stereo)
TTITLE5=Speak To Me Pretty (stereo)
TTITLE6=Time Is Not Enough (stereo)
TTITLE7=Here Comes That Feeling (stereo)
TTITLE8=Just Forget (stereo)
TTITLE9=Break It To Me Gently (stereo)
TTITLE10=Fool #1 (stereo)
TTITLE11=Anybody But Me (stereo)
TTITLE12=So Deep (stereo)
TTITLE13=Only You (And You Alone) (stereo)
TTITLE14=You've Got Me Crying Again (stereo)
TTITLE15=It's The Talk Of The Town (stereo)
TTITLE16=You Always Hurt The One You Love (stereo)
TTITLE17=I Miss You So (stereo)
TTITLE18=I'll Be Seeing You (stereo)
TTITLE19=Lazy River (stereo)
TTITLE20=Send Me Some Lovin' (stereo)
TTITLE21=Hold Me (stereo)
TTITLE22=I'll Always Be In Love With You (stereo)
TTITLE23=Organ Grinder's Swing (stereo)
TTITLE24=Let The Four Winds Blow (stereo)
TTITLE25=Everybody Loves Me But You (stereo)
TTITLE26=Heart In Hand (stereo)
TTITLE27=She'll Never Know (stereo)
TTITLE28=Why Me (stereo)
TTITLE29=It Takes One To Know One (stereo)
TTITLE30=Sweet Lovin' (stereo)
EXTD=
EXTT0=
EXTT1=
EXTT2=
EXTT3=
EXTT4=
EXTT5=
EXTT6=
EXTT7=
EXTT8=
EXTT9=
EXTT10=
EXTT11=
EXTT12=
EXTT13=
EXTT14=
EXTT15=
EXTT16=
EXTT17=
EXTT18=
EXTT19=
EXTT20=
EXTT21=
EXTT22=
EXTT23=
EXTT24=
EXTT25=
EXTT26=
EXTT27=
EXTT28=
EXTT29=
EXTT30=
PLAYORDER=
